{"title":"Supervolcano (2005) Webrip x264 [Aclass]","uid":11880364,"size":1840267692,"categoryP":"video","categoryS":"hd___movies","magnet":"?xt=urn:btih:7008504517513c6bdc96a2a682633c9400163201&amp;dn=Supervolcano+%282005%29+Webrip+x264+%5BAclass%5D&amp;tr=udp%3A%2F%2Ftracker.openbittorrent.com%3A80&amp;tr=udp%3A%2F%2Fopen.demonii.com%3A1337&amp;tr=udp%3A%2F%2Ftracker.coppersurfer.tk%3A6969&amp;tr=udp%3A%2F%2Fexodus.desync.com%3A6969","seeders":2,"leechers":0,"uploader":"akula941","files":2,"time":1430668809,"description":"A volcanic eruption in Yellowstone National Park leads to a devastating natural disaster.\n\nFormat : MPEG-4\nFormat profile : Base Media\nCodec ID : isom\nFile size : 863 MiB\nDuration : 50mn 35s\nOverall bit rate : 2 384 Kbps\nWriting application : Lavf54.63.104\n\nVideo\nID : 1\nFormat : AVC\nFormat/Info : Advanced Video Codec\nFormat profile : &lt;a class=&quot;__cf_email__&quot; href=&quot;/cdn-cgi/l/email-protection&quot; data-cfemail=&quot;7931101e1139354d574b&quot;&gt;[email&amp;#160;protected]&lt;/a&gt;&lt;script cf-hash='f9e31' type=&quot;text/javascript&quot;&gt;\n/* &lt;![CDATA[ */!function(){try{var t=&quot;currentScript&quot;in document?document.currentScript:function(){for(var t=document.getElementsByTagName(&quot;script&quot;),e=t.length;e--;)if(t[e].getAttribute(&quot;cf-hash&quot;))return t[e]}();if(t&amp;&amp;t.previousSibling){var e,r,n,i,c=t.previousSibling,a=c.getAttribute(&quot;data-cfemail&quot;);if(a){for(e=&quot;&quot;,r=parseInt(a.substr(0,2),16),n=2;a.length-n;n+=2)i=parseInt(a.substr(n,2),16)^r,e+=String.fromCharCode(i);e=document.createTextNode(e),c.parentNode.replaceChild(e,c)}}}catch(u){}}();/* ]]&gt; */&lt;/script&gt;\nFormat settings, CABAC : Yes\nFormat settings, ReFrames : 4 frames\nCodec ID : avc1\nCodec ID/Info : Advanced Video Coding\nDuration : 50mn 35s\nBit rate : 2247 Kbps\nNominal bit rate : 4500 Kbps\nWidth : 1920 pixels\nHeight : 1080 pixels\nDisplay aspect ratio : 16:9\nFrame rate mode : Variable\nFrame rate : 29.970 fps\nOriginal frame rate : 59.940 fps\nMinimum frame rate : 1.427 fps\nMaximum frame rate : 59.941 fps\nColor space : YUV\nChroma subsampling : 4:2:0\nBit depth : 8 bits\nScan type : Progressive\nBits/(Pixel*Frame) : 0.036\nStream size : 813 MiB (94%)\nWriting library : x264 core 123 r2189 \n\nAudio\nID : 2\nFormat : AAC\nFormat/Info : Advanced Audio Codec\nFormat profile : LC\nCodec ID : 40\nDuration : 50mn 35s\nBit rate mode : Constant\nBit rate : 128 Kbps\nChannel(s) : 2 channels\nChannel positions : Front: L R\nSampling rate : 48.0 KHz\nCompression mode : Lossy\nStream size : 46.2 MiB (5%)\nLanguage : English","torrent":{"xt":"urn:btih:7008504517513c6bdc96a2a682633c9400163201","amp;dn":"Supervolcano+%282005%29+Webrip+x264+%5BAclass%5D","amp;tr":["udp%3A%2F%2Ftracker.openbittorrent.com%3A80","udp%3A%2F%2Fopen.demonii.com%3A1337","udp%3A%2F%2Ftracker.coppersurfer.tk%3A6969","udp%3A%2F%2Fexodus.desync.com%3A6969"],"infoHash":"7008504517513c6bdc96a2a682633c9400163201","infoHashBuffer":{"type":"Buffer","data":[112,8,80,69,23,81,60,107,220,150,162,166,130,99,60,148,0,22,50,1]},"announce":[],"urlList":[]}}